<svg width="20" height="21" viewBox="0 0 20 21" fill="none" xmlns="http://www.w3.org/2000/svg">
<path fill-rule="evenodd" clip-rule="evenodd" d="M18 0.210938H2C0.89543 0.210938 0 1.10637 0 2.21094V18.2109C0 19.3155 0.89543 20.2109 2 20.2109H18C19.1046 20.2109 20 19.3155 20 18.2109V2.21094C20 1.10637 19.1046 0.210938 18 0.210938ZM2 18.2109V2.21094H18V18.2109H2Z" fill="white"/>
<path d="M13.5475 17.2109V11.2907H15.6206L15.9288 8.9727H13.5475V7.49624C13.5475 6.82736 13.7409 6.3694 14.7374 6.3694H16V4.3028C15.3857 4.23937 14.7681 4.20874 14.1503 4.21106C12.3178 4.21106 11.0597 5.28878 11.0597 7.26726V8.96836H9V11.2863H11.0642V17.2109H13.5475Z" fill="white"/>
</svg>
