<svg width="20" height="21" viewBox="0 0 20 21" fill="none" xmlns="http://www.w3.org/2000/svg">
<path fill-rule="evenodd" clip-rule="evenodd" d="M18 0.210938H2C0.89543 0.210938 0 1.10637 0 2.21094V18.2109C0 19.3155 0.89543 20.2109 2 20.2109H18C19.1046 20.2109 20 19.3155 20 18.2109V2.21094C20 1.10637 19.1046 0.210938 18 0.210938ZM2 18.2109V2.21094H18V18.2109H2Z" fill="white"/>
<path d="M5.44467 7.10028C6.24254 7.10028 6.88934 6.45348 6.88934 5.65561C6.88934 4.85774 6.24254 4.21094 5.44467 4.21094C4.6468 4.21094 4 4.85774 4 5.65561C4 6.45348 4.6468 7.10028 5.44467 7.10028Z" fill="white"/>
<path d="M8.2546 8.19369V16.2087H10.7432V12.2451C10.7432 11.1992 10.9399 10.1864 12.2367 10.1864C13.5156 10.1864 13.5315 11.3821 13.5315 12.3111V16.2094H16.0214V11.8139C16.0214 9.65486 15.5565 7.99561 13.033 7.99561C11.8214 7.99561 11.0092 8.6605 10.6771 9.28974H10.6435V8.19369H8.2546ZM4.19922 8.19369H6.69174V16.2087H4.19922V8.19369Z" fill="white"/>
</svg>
