<svg width="20" height="21" viewBox="0 0 20 21" fill="none" xmlns="http://www.w3.org/2000/svg">
<path fill-rule="evenodd" clip-rule="evenodd" d="M18 0.210938H2C0.89543 0.210938 0 1.10637 0 2.21094V18.2109C0 19.3155 0.89543 20.2109 2 20.2109H18C19.1046 20.2109 20 19.3155 20 18.2109V2.21094C20 1.10637 19.1046 0.210938 18 0.210938ZM2 18.2109V2.21094H18V18.2109H2Z" fill="white"/>
<path d="M17 6.5117C16.5127 6.73677 15.9967 6.88435 15.4686 6.94964C16.0229 6.60536 16.4397 6.0594 16.6412 5.41377C16.116 5.73712 15.5432 5.96487 14.9466 6.08752C14.6955 5.80922 14.3933 5.58797 14.0586 5.43727C13.7239 5.28656 13.3637 5.20956 12.9999 5.21096C11.527 5.21096 10.3329 6.45533 10.3329 7.98845C10.3329 8.2057 10.3563 8.41814 10.4018 8.62095C9.34532 8.5678 8.31087 8.28229 7.36451 7.78264C6.41814 7.28299 5.58064 6.58016 4.90545 5.71902C4.66874 6.14142 4.54432 6.62361 4.54535 7.11464C4.5458 7.57386 4.65444 8.02573 4.86144 8.42941C5.06844 8.83308 5.36728 9.17584 5.73095 9.4267C5.30811 9.41226 4.89441 9.29286 4.52325 9.07813V9.11251C4.52325 10.4586 5.443 11.5813 6.66175 11.8371C6.4327 11.9013 6.19673 11.9339 5.95975 11.934C5.7875 11.934 5.62045 11.9168 5.4573 11.8824C5.63155 12.4379 5.96502 12.9222 6.41138 13.268C6.85774 13.6138 7.39485 13.804 7.9481 13.8122C6.99914 14.5854 5.83418 15.003 4.63635 14.9996C4.42055 14.9996 4.20865 14.9858 4 14.9611C5.22281 15.7797 6.64069 16.2132 8.08785 16.2109C12.9934 16.2109 15.6753 11.978 15.6753 8.30745L15.6662 7.94789C16.1894 7.55854 16.6413 7.07191 17 6.5117Z" fill="white"/>
</svg>
